<?xml version="1.0" encoding="UTF-8" standalone="no"?>
<!-- Created with Inkscape (http://www.inkscape.org/) -->

<svg
   version="1.1"
   viewBox="0 0 24 24"
   id="svg385"
   sodipodi:docname="lua.svg"
   inkscape:version="1.2.2 (732a01da63, 2022-12-09)"
   xmlns:inkscape="http://www.inkscape.org/namespaces/inkscape"
   xmlns:sodipodi="http://sodipodi.sourceforge.net/DTD/sodipodi-0.dtd"
   xmlns="http://www.w3.org/2000/svg"
   xmlns:svg="http://www.w3.org/2000/svg">
  <defs
     id="defs389" />
  <sodipodi:namedview
     id="namedview387"
     pagecolor="#ffffff"
     bordercolor="#000000"
     borderopacity="0.25"
     inkscape:showpageshadow="2"
     inkscape:pageopacity="0.0"
     inkscape:pagecheckerboard="0"
     inkscape:deskcolor="#d1d1d1"
     showgrid="false"
     inkscape:zoom="24.954977"
     inkscape:cx="8.2147942"
     inkscape:cy="10.739341"
     inkscape:window-width="1920"
     inkscape:window-height="1027"
     inkscape:window-x="-8"
     inkscape:window-y="-8"
     inkscape:window-maximized="1"
     inkscape:current-layer="svg385" />
  <g
     transform="translate(-.20339 -.1017)"
     id="g383">
    <circle
       cx="12.203"
       cy="12.102"
       r="10.322"
       fill="none"
       stroke="#7daea3"
       id="circle377"
       style="stroke:#3c7cae;stroke-opacity:1" />
    <path
       d="m12.33 5.7461a6.4831 6.3814 0 0 0 -6.4824 6.3809 6.4831 6.3814 0 0 0 6.4824 6.3809 6.4831 6.3814 0 0 0 6.4844 -6.3809 6.4831 6.3814 0 0 0 -6.4844 -6.3809zm1.8594 1.916a2.329 2.2925 0 0 1 2.3301 2.293 2.329 2.2925 0 0 1 -2.3301 2.291 2.329 2.2925 0 0 1 -2.3281 -2.291 2.329 2.2925 0 0 1 2.3281 -2.293z"
       fill="#7daea3"
       fill-rule="evenodd"
       id="path379"
       style="fill:#3c7cae;fill-opacity:1" />
    <ellipse
       cx="19.631"
       cy="4.6154"
       rx="2.329"
       ry="2.2925"
       fill="#7daea3"
       fill-rule="evenodd"
       id="ellipse381"
       style="fill:#3c7cae;fill-opacity:1" />
  </g>
</svg>
