<?xml version="1.0" encoding="UTF-8" standalone="no"?>
<svg
   version="1.1"
   viewBox="0 0 24 24"
   id="svg2265"
   sodipodi:docname="python.svg"
   inkscape:version="1.2.2 (732a01da63, 2022-12-09)"
   xmlns:inkscape="http://www.inkscape.org/namespaces/inkscape"
   xmlns:sodipodi="http://sodipodi.sourceforge.net/DTD/sodipodi-0.dtd"
   xmlns="http://www.w3.org/2000/svg"
   xmlns:svg="http://www.w3.org/2000/svg">
  <defs
     id="defs2269" />
  <sodipodi:namedview
     id="namedview2267"
     pagecolor="#ffffff"
     bordercolor="#000000"
     borderopacity="0.25"
     inkscape:showpageshadow="2"
     inkscape:pageopacity="0.0"
     inkscape:pagecheckerboard="0"
     inkscape:deskcolor="#d1d1d1"
     showgrid="false"
     inkscape:zoom="17.645834"
     inkscape:cx="-0.79338842"
     inkscape:cy="8.6139314"
     inkscape:window-width="1920"
     inkscape:window-height="1027"
     inkscape:window-x="-8"
     inkscape:window-y="-8"
     inkscape:window-maximized="1"
     inkscape:current-layer="svg2265" />
  <g
     transform="translate(-1.5418e-7 -.00046865)"
     id="g2263">
    <g
       id="g2261">
      <path
         d="m9.8594 2.0009c-1.58 0-2.8594 1.2794-2.8594 2.8594v1.6797h4.2891c.39 0 .71094.57094.71094.96094h-7.1406c-1.58 0-2.8594 1.2794-2.8594 2.8594v3.7812c0 1.58 1.2794 2.8594 2.8594 2.8594h1.1797v-2.6797c0-1.58 1.2716-2.8594 2.8516-2.8594h5.25c1.58 0 2.8594-1.2716 2.8594-2.8516v-3.75c0-1.58-1.2794-2.8594-2.8594-2.8594zm-.71875 1.6094c.4 0 .71875.12094.71875.71094s-.31875.89062-.71875.89062c-.39 0-.71094-.30062-.71094-.89062s.32094-.71094.71094-.71094z"
         fill="#7daea3"
         id="path2257"
         style="fill:#3c7cae;fill-opacity:1" />
      <path
         d="m17.959 7v2.6797c0 1.58-1.2696 2.8594-2.8496 2.8594h-5.25c-1.58 0-2.8594 1.2696-2.8594 2.8496v3.75a2.86 2.86 0 0 0 2.8594 2.8613h4.2812a2.86 2.86 0 0 0 2.8594 -2.8613v-1.6797h-4.291c-.39 0-.70898-.56898-.70898-.95898h7.1406a2.86 2.86 0 0 0 2.8594 -2.8613v-3.7793a2.86 2.86 0 0 0 -2.8594 -2.8594zm-9.6387 4.5137-.0039.0039c.01198-.0024.02507-.0016.03711-.0039zm6.5391 7.2754c.39 0 .71094.30062.71094.89062a.71 .71 0 0 1 -.71094 .70898c-.4 0-.71875-.11898-.71875-.70898s.31875-.89062.71875-.89062z"
         fill="#e3ae5a"
         id="path2259" />
    </g>
  </g>
</svg>
