<svg version="1.2" xmlns="http://www.w3.org/2000/svg" viewBox="0 0 1000 1000" width="500" height="500"><style>.a{fill:#fff}</style><path class="a" d="m513.8 985.9c-42 0-79.5-34.5-103.9-88.5-6-13.2-42.8-23.4-65.4-33.4-23-10.3-203.5-48.6-203.5-181.3 0-39 18.3-165.2 64.8-174.2 61.6-11.9 63.6 34.5 55.9 57.9-7.7 23.4-23.7 117.3 21.6 160.1 42.7 40.3 99.1 65.9 98.5 58.6-0.9-11.2-1.3-24.7-1.3-36.3 0-131.1 59.6-237.1 133.3-237.1 73.7 0 133.3 106 133.3 237.1 0 131.1-59.6 237.1-133.3 237.1z"/><path class="a" d="m342.6 511.7c0-62 72.5-122.6 160.7-112.1 46.5 5.6 91.6-123.4 109.2-113.5 40.3 22.5 51.5 186.7 51.5 225.6 0 62-71.8 112.1-160.7 112.1-88.9 0-160.7-50.1-160.7-112.1z"/><path class="a" d="m503.3 623.8c-88.9 0-160.7-50.1-160.7-112.1 0-38.9 11.2-203.1 51.4-225.6 17.7-9.9 62.8 119.1 109.3 113.5 88.2-10.5 160.7 50.1 160.7 112.1 0 62-71.8 112.1-160.7 112.1z"/><path class="a" d="m502.6 492.7c-50.3 0-90.9-24-90.9-53.6 0-29.6 40.6-53.6 90.9-53.6 50.3 0 90.9 24 90.9 53.6 0 29.6-40.6 53.6-90.9 53.6z"/><path class="a" d="m500 2026c-464 0-839-253.9-839-568 0-314.1 375-568 839-568 464 0 839 253.9 839 568 0 314.1-375 568-839 568z"/></svg>