<svg version="1.2" xmlns="http://www.w3.org/2000/svg" viewBox="0 0 1376 1576" width="100" height="115"><style>.a{opacity:1;fill:#fff}</style><path fill-rule="evenodd" class="a" d="m710.3 8.6c21.3 0.4 26.1 0.8 41.9 4.1 9.9 2 23.6 5.5 30.5 7.8 6.9 2.3 17.9 6.8 24.3 9.9 6.5 3.1 17 9.2 23.5 13.5 6.5 4.3 16.2 11.6 21.6 16.2 5.5 4.6 14.1 13.1 19.1 18.9 5.1 5.9 13.2 16.4 17.9 23.5 4.8 7.1 11.9 19.5 15.9 27.6 4.1 8 10.2 22 13.7 31 3.6 9.1 8.2 22.5 10.3 30 2.1 7.4 6.1 24.3 8.7 37.5 2.7 13.2 5.9 32.7 7.1 43.4 1.2 10.6 2.8 27.8 3.5 38.1 0.7 10.3 1.8 33 2.4 50.4 0.7 17.4 1.7 38.5 2.3 46.9 0.7 8.4 2.2 22.9 3.5 32.3 1.2 9.3 3.4 22 4.8 28.1 1.3 6.2 4 15.9 5.9 21.7 2 5.8 6.3 16.4 9.8 23.5 3.4 7.1 8.8 17.1 12 22.3 3.2 5.1 20.1 29.4 37.5 53.9 17.4 24.5 45.3 64.9 62 89.7 16.8 25 42.5 65.6 57.7 90.9 15.1 25.2 32.4 55.5 38.4 67.5 6 11.9 13.3 27.2 16.2 34 2.9 6.7 6.7 16.2 8.4 21.1 1.8 4.8 4.7 14.8 6.6 22.3 1.9 7.4 4.1 18.2 5.1 24 0.9 5.8 2.3 19.3 3.1 29.9 1.1 15.2 1.1 23.7 0 39.3-0.8 11-2.1 25.2-3 31.7-0.9 6.4-2.2 14.6-2.8 18.1-0.6 3.6-2.8 14.7-8.6 42.8l8.4 10.6c4.6 5.8 10.7 15 13.5 20.5 2.9 5.5 6.3 12.9 7.6 16.4 1.3 3.6 3.2 9.9 4.2 14.1 0.9 4.2 2.2 16.3 2.8 27 0.7 10.6 2 22.5 3.1 26.4 1 3.8 3.8 10.7 6.2 15.2 2.4 4.5 7.2 11.3 10.8 15.1 3.5 3.8 10.4 9.9 15.2 13.5 4.9 3.7 17.5 11.1 28.1 16.6 14.1 7.3 21.1 11.7 26.2 16.4 4.4 4.1 8.2 9 10.4 13.5 1.9 3.9 4.1 10.4 4.8 14.6 1.1 6 1.1 9.3-0.1 15.3-0.9 4.2-3.2 11-5.2 15.2-2.3 4.8-6.7 10.8-11.9 16.3-4.6 4.8-11.5 10.9-15.3 13.7-3.9 2.7-12.6 8.1-19.4 12-6.7 3.8-35.2 19.7-63.3 35.1-28.1 15.5-62.6 35.4-76.8 44.3-14.2 8.9-29 18.3-32.9 20.9-3.8 2.6-11.5 8.2-17 12.4-5.4 4.3-17.3 14.3-26.4 22.4-9 8-19.8 16.8-24 19.5-4.2 2.7-11.3 6.5-15.8 8.5-4.5 1.9-12.7 4.8-18.2 6.4-5.5 1.6-15.5 3.6-22.3 4.3-9.1 1-15.7 1.1-25.2 0.1-7.1-0.7-16.7-2.3-21.4-3.6-4.7-1.3-10.8-3.5-13.5-4.8-2.7-1.4-8.1-4.7-12-7.3-3.9-2.6-11.3-9-16.4-14.2-6.5-6.7-11.7-13.4-16.7-22.1-4.5-7.7-8.4-13-10-13.6-1.5-0.6-7.8-2.2-14.1-3.5-6.3-1.4-19.5-3.9-29.3-5.5-9.8-1.7-29.2-4.4-43.1-6-19.6-2.3-33.4-3.1-62.2-3.6-23.3-0.4-45.4-0.1-59.8 0.8-12.6 0.8-29.7 2.1-38.1 3-8.4 0.9-23.4 2.7-33.4 4-10 1.4-21.4 3-25.2 3.7-3.9 0.6-16 2.8-27 4.8-11 2-20.9 4-22 4.6-1.1 0.6-5.1 5.2-8.7 10.2-3.7 5-11 13.3-16.2 18.5-6.3 6.4-12.1 10.8-17.6 13.7-4.5 2.3-13 5.7-18.8 7.4-9.3 2.9-12.5 3.3-27.5 3.3-12.9 0.1-20.3-0.6-30.5-2.5-7.4-1.4-21.2-4.7-30.5-7.2-9.4-2.6-45.9-14.8-81.2-27-38.2-13.3-71.7-24.2-82.7-27-10.2-2.5-24.6-5.7-32-7-7.4-1.3-24.5-3.9-38.1-5.9-13.5-2-28.8-4.4-34-5.4-5.2-1-14.4-3.2-20.5-4.8-6.2-1.6-15.4-4.4-20.5-6.2-5.2-1.8-13.9-5.5-19.4-8.3-6.9-3.6-12.4-7.6-17.7-12.8-5.7-5.7-8.4-9.4-10.3-14.5-1.4-3.7-2.5-8.7-2.5-11.1 0-2.4 0.8-8.1 1.8-12.6 1-4.5 4.4-16.7 7.7-27 3.2-10.3 7.4-24.5 9.3-31.6 1.8-7.1 3.9-18.1 4.6-24.4 1.1-10.1 1-12.9-1.2-24-1.3-7-4.2-20.5-6.3-30.2-2.2-9.7-4.3-20.5-4.7-24.1-0.4-3.5-0.2-10.1 0.6-14.6 0.7-4.5 2.5-10.9 4.1-14.1 1.5-3.2 5.8-8.8 9.5-12.5 4.5-4.3 9.9-8 15.7-10.7 5.2-2.4 18.5-6.6 32.8-10.2 13.2-3.3 29.8-8.1 36.9-10.8 7.1-2.6 16.1-6.3 20-8.3 3.8-1.9 10.4-6 14.6-9.1 4.2-3.1 10.3-8.4 13.6-11.9 3.2-3.4 8-9.4 10.6-13.3 2.6-3.9 7.9-12.3 11.7-18.7 3.8-6.4 9.8-14.8 13.4-18.6 3.5-3.8 9.2-8.7 12.6-10.9 5-3.2 6.2-4.6 6.2-7.2 0-1.8-1.2-8.2-2.5-14.4-1.9-8.3-2.5-15.1-2.5-26.9 0-13.2 0.5-18 3-28.5 1.7-6.9 5.6-18 8.5-24.6 3-6.6 7.7-16.5 10.4-22 2.8-5.5 8.2-17.9 12.1-27.6 3.9-9.6 13-34.2 20.2-54.5 7.2-20.3 19-52.2 26.1-70.9 7.1-18.7 15.9-40.6 19.6-48.7 3.6-8.1 10.2-21 14.6-28.7 4.4-7.8 15.9-25.2 25.5-38.7 9.6-13.6 20.2-28.5 23.6-33.1 3.4-4.6 18-24.1 32.5-43.4 14.5-19.2 29.6-39.8 33.7-45.8 4-6 8.8-13.6 10.4-17 1.7-3.4 4.1-10.8 5.3-16.4 1.2-5.7 3-19.1 4-29.9 0.9-10.8 1.7-30.8 1.7-44.3 0-13.6-0.8-39.4-1.7-57.5-0.9-18-2.5-42.1-3.4-53.3-1-11.3-2.4-28.7-3.3-38.7-0.8-10-1.4-34.3-1.3-54 0-29.5 0.5-39.2 2.6-55.7 1.4-11 3.4-23.9 4.4-28.7 1-4.9 4.1-16.6 7-26.1 2.8-9.5 7.2-21.7 9.7-27 2.5-5.3 7.9-14.7 11.9-20.8 4.5-6.8 12-15.8 19.2-22.9 7.9-8 15.4-14 22.7-18.5 5.9-3.7 17.3-10.1 25.2-14.2 8.9-4.7 22.2-10.2 34.9-14.6 11.3-3.8 26.8-8.4 34.6-10.1 7.7-1.7 19.9-3.9 26.9-4.8 8.6-1.1 21.1-1.5 37-1.2zm11.7 210.2c-6.1 3-11.3 6.9-17.1 12.6-4.6 4.6-10.6 11.8-13.3 15.9-2.7 4.2-6.4 11.6-8.2 16.5-1.9 4.8-4.2 13.2-5.3 18.7-1 5.5-1.8 14.7-1.8 20.6 0 5.8 0.5 13.7 1.1 17.5 0.7 3.9 2.4 10.8 3.8 15.3 2.5 7.5 3.1 8.4 7.6 10.5 2.6 1.3 9.6 4.2 15.5 6.5 5.9 2.3 11 3.7 11.5 3.2 0.5-0.5-0.2-4.7-1.7-9.4-1.7-5.4-2.6-11.4-2.6-16.7 0-4.5 0.8-11.6 1.8-15.8 1-4.2 3.8-11.3 6.1-15.7 2.6-4.8 6.6-10 9.7-12.7 2.9-2.5 7.6-5.3 10.5-6.3 2.9-0.9 7.7-1.7 10.6-1.7 2.9 0 7.6 0.8 10.5 1.7 2.9 1 8.1 4.3 11.6 7.4 3.7 3.2 7.7 8.3 9.6 12 1.8 3.6 4 9.7 5.1 13.5 1 4 1.8 11.9 1.9 18.2 0 8.3-0.6 13-2.4 18.2-1.3 3.9-3.9 9.4-5.8 12.3-1.9 2.9-5.8 7.5-8.8 10.3-4.5 4.2-5.1 5.2-3.9 6.8 0.9 1 2.2 1.7 3 1.7 0.8 0 3.4 1.1 5.8 2.5 2.9 1.5 5.5 2.2 7.4 1.7 1.6-0.3 5.9-3.2 9.6-6.2 3.7-3.1 8.9-8.6 11.5-12.1 2.7-3.6 6.3-9.1 8.1-12.3 1.9-3.2 4.7-9.8 6.4-14.7 1.6-4.8 3.8-14.8 4.9-22.3 1.6-11.4 1.7-15.2 0.5-24.6-0.8-6.1-2.4-14.7-3.6-19-1.2-4.4-4.3-12.1-6.8-17.1-2.5-5-7.1-12.4-10.3-16.6-3.1-4.1-8.3-9.5-11.5-12.1-3.3-2.5-8.8-6.1-12.3-7.9-3.6-1.8-9.1-4.1-12.4-5-3.2-1-9.5-2.1-14-2.5-5.3-0.4-10.9 0-15.9 1.1-4.2 0.9-11.5 3.6-16.4 6zm-187.6 14.1c-1.6 1.1-5.6 4.7-8.9 7.9-3.3 3.3-8.2 9.4-10.9 13.6-2.7 4.2-6.4 11.8-8.2 17-1.9 5.1-4.1 13.1-5 17.6-1 4.9-1.6 14.8-1.5 24.6 0.1 10.4 0.9 19.5 2.1 24.9 1 4.7 3.4 12.6 5.4 17.6 1.9 5 5.6 12.3 8.3 16.1 2.6 3.9 6.8 9.1 9.1 11.5 2.4 2.5 6.8 6.1 9.9 8l5.5 3.4c5.9-3.5 10.8-7.7 14.7-11.6l7-7c-5-1-7.9-1.6-9.6-2-1.8-0.4-5.6-2.2-8.5-4-2.9-1.8-6.9-5.3-8.8-7.8-1.9-2.5-4.9-7.7-6.7-11.6-1.8-3.8-4.1-11.2-5.2-16.4-1.2-6-1.6-12.3-1.2-17.6 0.4-4.5 1.4-10.8 2.4-14 0.9-3.3 3.6-8.3 5.9-11.2 2.3-2.9 5.9-6.4 8-7.9 3-2.1 5.3-2.7 10.8-2.7 5.5 0.1 8.3 0.8 12.9 3.4 3.3 1.8 7.5 5.4 9.6 7.9 2 2.5 4.9 7.2 6.6 10.5 1.6 3.2 3.8 9 4.8 12.9 1.1 4.1 1.9 12 1.9 19.3 0 8.4-0.5 13.7-1.7 16.7-1 2.4-1.8 4.7-1.8 5 0 0.3 0.5 0.6 1.2 0.6 0.6 0 4.1-2.5 7.8-5.6 3.7-3 10.4-7.4 15-9.7 5.7-2.8 8.7-5.1 10-7.6 1.3-2.7 1.7-7.8 1.7-21.7-0.1-15.7-0.5-19.7-3.1-29.3-1.6-6.1-4.8-15.1-7.1-19.9-2.2-4.9-6.6-12.1-9.8-16.1-3.2-4.1-8.7-9.5-12.2-12.1-3.7-2.8-9.7-5.8-14.1-7.1-4.2-1.3-10.5-2.3-14-2.2-3.6 0-9.4 1.1-12.9 2.4-3.6 1.2-7.8 3.2-9.4 4.2zm44 175.4c-18.1 14.5-35.5 28.6-38.6 31.5-4.4 3.9-5.8 6-5.8 8.7-0.1 1.9 1.5 6.7 3.3 10.5 2.2 4.4 7.1 10.9 12.9 16.9 5.2 5.4 13.3 13 18.2 16.9 4.8 3.9 15 11.2 22.6 16.3 7.5 5 17 10.8 21.1 12.9 5.5 2.8 9.3 3.8 15.5 4.3 6.3 0.4 10.3-0.1 17-2.1 4.9-1.5 15.9-6.3 24.6-10.7 8.7-4.4 29.9-16.3 47-26.4 17-10.1 37.6-21.9 45.6-26.2 8-4.2 16.9-9.8 19.6-12.4 4.4-4.1 5.1-5.4 5.1-9.7 0-2.7-0.8-6.6-1.7-8.5-1-1.9-4.6-5.7-8-8.4-3.3-2.6-9.7-6.6-14-8.7-4.4-2.2-20-8.8-34.6-14.7-14.7-5.8-38.3-14.5-52.5-19.3-21.8-7.4-27-8.7-33.6-8.7-6.9 0-8.9 0.6-19.3 5.8-9.4 4.7-18 10.9-44.4 32zm216.3 72.9c-2.9 1.1-16.3 7.8-29.9 15-13.5 7.2-37.5 20.4-53.3 29.5-15.8 9-35.6 19.7-44 23.8-8.4 4.1-18.4 8.6-22.3 9.9-4.3 1.5-11.3 2.7-18.2 3.1-8.3 0.4-13.1 0.1-18.7-1.4-4.2-1.1-11.1-3.6-15.3-5.5-4.2-1.9-13.4-7.3-20.5-12.1-7.9-5.2-19.9-15.1-31.1-25.4-10-9.3-19.8-18.9-21.7-21.3-1.9-2.5-3.8-4.4-4.1-4.4-0.3 0-0.6 7.8-0.6 17.4 0 14.4-0.6 19.9-3.3 33.1-1.9 8.7-4.7 20-6.3 25.2-1.7 5.2-6.2 17-10.1 26.4-3.9 9.3-9.7 21.5-12.9 27-3.3 5.4-8.6 13.6-11.9 18.1-3.3 4.6-8.9 12.5-12.4 17.6-3.4 5.2-8.8 14.7-11.9 21.1-3.1 6.5-8.8 20.5-12.7 31.1-4 10.7-12.2 33.4-18.3 50.5-6.1 17-13.3 36.8-15.9 43.9-2.6 7.1-6.9 17.7-9.6 23.5-2.7 5.8-8.7 17.7-13.5 26.4-4.8 8.7-10.8 20.3-13.4 25.8-2.6 5.5-6.8 15.7-9.3 22.8-2.5 7.1-6.1 18.8-8 25.8-1.8 7.1-4.2 16.9-5.1 21.7-1 4.9-2.6 14.9-3.6 22.3-0.9 7.4-2.1 20.9-2.5 29.9-0.5 11.8-0.2 20.8 1.1 31.7 1 8.4 3.2 20.5 4.9 27 1.7 6.4 4.6 14.9 6.5 18.7 1.8 3.9 5.6 10.5 8.3 14.7 2.7 4.2 12.3 15 21.4 24.1 12.2 12.1 28.9 26.3 63.5 53.9 32.2 25.6 51.3 41.8 61 51.5 7.7 7.8 16 17.1 18.3 20.6 2.3 3.6 5.2 9.1 6.3 12.3 1.5 4 2.2 9.3 2.2 16.4 0 8.6-0.5 11.8-2.8 17-1.5 3.6-4.5 8.9-6.5 11.8-2.1 2.9-5.8 6.7-8.3 8.5-2.5 1.7-8.8 4.9-13.9 7.1-5.2 2.2-9.6 4.5-9.8 5-0.2 0.6 6.7 9.3 15.3 19.3 8.5 10.1 22.7 26.4 31.4 36.3 8.7 9.8 16.9 18.3 18.2 18.8 1.3 0.5 11.6 1.6 22.8 2.4 13.4 0.9 31 1.2 50.5 0.7 19-0.4 40.4-1.8 58.6-3.7 15.8-1.6 33.8-3.8 39.9-4.8 6.1-0.9 16.7-3.1 23.4-4.8 6.8-1.6 16.8-4.6 22.3-6.5 5.5-1.9 17.9-7.3 27.6-12 9.7-4.8 22.3-11.6 28.1-15.3 5.8-3.6 16.4-11 23.5-16.3 7.1-5.4 19.5-15.6 27.6-22.7 8-7.1 18.8-17.8 24-23.8 5.2-5.9 11-13 12.9-15.6l3.5-4.8c1.3-79.1 2.3-109 3-117.4 0.7-8.3 2.1-21 3-28.1 0.9-7.1 2.7-15 3.9-17.6 1.4-2.9 4.6-6.4 8.5-9.1 5.2-3.7 7.8-4.7 15.6-5.8 7.2-1.1 12.4-1.1 22.3 0 7.1 0.8 13.3 1.1 13.8 0.6 0.5-0.5 2.6-10.2 4.8-21.5 2.2-11.2 4.3-23.4 4.7-26.9 0.5-3.6 1.6-16.2 2.5-28.2 1-11.9 1.8-29.9 1.8-39.9 0-10-0.6-23.9-1.2-31-0.7-7.1-2-18.5-2.9-25.3-1-6.7-3.9-21.2-6.5-32.2-2.6-11-9.5-34.5-15.4-52.2-5.9-17.7-15.7-45.4-21.8-61.6-6.1-16.1-17.9-46.2-26.3-66.8-8.4-20.7-21-50.2-28-65.7-6.9-15.5-20-44.5-29-64.5-9-20-21-45.6-26.7-56.9-5.6-11.3-12.9-24.7-16.2-29.8-3.4-5.1-7.4-10.2-9-11.4-1.6-1.3-3.4-2.2-4.1-2.1-0.6 0.1-3.8 0.8-7 1.7-3.3 0.8-8.3 2.3-11.2 3.4zm-543.4 636.2c-1.2 1.1-4.2 4.5-6.6 7.8-2.4 3.2-9 14.5-14.7 25.2-5.6 10.6-11.9 22-14 25.2-2 3.2-5.3 7.7-7.3 10-1.9 2.2-6.1 5.8-9.3 7.8-3.1 2.1-9.9 5.4-15.1 7.2-5.2 1.9-18.9 5.7-30.5 8.4-11.6 2.7-27.2 6.8-34.6 9-7.4 2.3-16 5.5-19.2 7.2-3.1 1.8-7 4.7-8.8 6.5-2.9 3.1-3.1 4.1-3.5 15.8-0.3 9.8 0.3 16.7 2.8 31.3 2.8 16.3 3.1 20.7 2.5 33.4-0.5 9.8-1.6 18.2-3.5 25.2-1.5 5.9-5 18.5-7.7 28.2-2.7 9.7-5.5 21.8-6.2 27-0.7 5.1-1 11.3-0.6 13.7 0.5 2.6 2.4 6.2 4.6 8.6 2.3 2.6 6.4 5.2 10.3 6.6 3.5 1.3 11.7 3.6 18.2 5.2 6.4 1.5 32.8 6.5 58.6 11 25.8 4.6 53 9.7 60.4 11.3 7.4 1.7 19.6 5.2 27 7.8 7.4 2.6 20.9 7.8 29.9 11.7 9 3.8 27.5 11.1 41 16.1 13.6 5.1 31 11.1 38.7 13.5 7.8 2.3 21.2 6 29.9 8.2 8.7 2.2 20.1 4.6 25.3 5.3 5.2 0.8 12.2 1 15.8 0.6 3.5-0.5 8.3-1.6 10.5-2.6 2.3-0.9 7.8-4.8 12.4-8.5 4.5-3.7 11.5-10.4 15.6-14.8 4.1-4.5 9.5-11.3 12.1-15.2 2.6-3.8 5.8-10.7 7.2-15.2 1.8-6 2.5-11.1 2.5-18.8-0.1-9-0.7-12.4-4.5-23.4-2.4-7.1-5.7-15.6-7.3-18.8-1.7-3.2-6.3-10.9-10.4-17-4.1-6.1-10.2-14.3-13.5-18.2-3.4-3.8-12.8-16-21-26.9-8.2-11-21.5-30.3-29.4-42.9-8-12.5-26.9-43.4-42.2-68.6-15.2-25.1-31.6-51-36.4-57.4-4.8-6.5-14.3-17.5-21.1-24.4-6.8-7-15.7-15.1-19.9-17.9-4.2-2.9-10.7-6.3-14.4-7.6-3.7-1.3-8.5-2.3-10.6-2.3-2.1 0.1-5.4 0.9-7.3 1.9-1.9 1.1-4.5 2.8-5.7 3.8zm717.6 31.2c-1.3 3.1-1.8 8.8-1.8 22.3 0 10 0.9 27.6 1.9 39 1.4 15.1 1.7 27.7 1.2 46-0.3 13.9-1.4 31.6-2.4 39.3-1 7.8-3.4 22.5-5.3 32.9-1.9 10.3-5.8 31.1-8.7 46.3-2.8 15.1-5.8 32.3-6.6 38.1-0.9 6.3-1.2 17.4-0.9 27.6 0.4 10.3 1.3 19.7 2.5 24 1.1 3.9 4.2 11.5 6.9 17 3.6 7.3 7.2 12.2 13.2 18.3 4.9 5 10.8 9.6 14.6 11.4 3.6 1.8 9.4 3.7 12.9 4.3 4 0.6 9.5 0.6 14.4-0.1 4.4-0.6 12-2.7 17-4.7 5-2 11.7-5 15-6.6 3.2-1.6 11.9-7.1 19.3-12.2 7.4-5 16.9-12.2 21.1-15.8 4.2-3.7 13.2-11.8 20-18.1 6.7-6.3 14.7-13.4 17.6-15.9 2.9-2.4 11-8.2 18.1-12.8 7.1-4.7 22.2-13.7 33.5-20 11.3-6.3 37.4-20.2 58-31 20.7-10.8 42.8-22.9 49.3-26.9 6.4-4 13.2-8.7 15-10.4 1.9-1.7 4.1-4.6 5-6.4 1.3-2.4 1.4-4.3 0.5-7.9-0.7-2.7-3.2-6.9-6.2-10.1-2.7-3-8.6-8-13.2-11-4.5-3-15.5-9.7-24.6-14.7-12.1-6.8-18.2-11.1-23.4-16.4-4-3.9-9.5-11.5-12.7-17-3-5.5-7.1-14.8-9.1-20.8-1.9-6-4-14.4-4.6-18.8-0.7-4.3-1.6-14.7-2.1-23.1-0.9-12.9-1.5-16.3-4.1-21.7-1.7-3.6-5.1-8.5-7.5-11l-4.5-4.4c-8.9 15.1-13.9 22.9-16.8 27.1-3 4.2-8.3 10.7-11.9 14.5-3.6 3.8-10.4 9.6-15.3 12.8-4.8 3.3-12.2 7.5-16.4 9.3-4.2 1.9-12.6 5.2-18.8 7.3-6.1 2.2-15.6 4.8-21.1 5.8-5.5 1.1-15.5 1.9-22.3 1.9-8.1 0-15.2-0.7-21.1-2.2-4.8-1.2-11.4-3.5-14.6-5.2-3.3-1.6-8-4.7-10.6-7-2.6-2.2-6.8-7.1-9.3-10.9-2.6-3.8-6.1-11.2-7.9-16.3-1.7-5.2-3.8-13.1-4.5-17.6-0.8-4.5-1.7-14.6-2.1-22.3l-0.8-14.1c-14.8-0.5-17.2-0.1-20.2 1.8-2.1 1.3-4.6 4.2-5.6 6.4z"/></svg>