<?xml version="1.0" encoding="UTF-8" standalone="no"?>
<svg
   id="Layer_1"
   viewBox="0 0 256 256"
   version="1.1"
   sodipodi:docname="Reddit_Icon_1Color_Silhouette.svg"
   inkscape:version="1.4.2 (ebf0e940d0, 2025-05-08)"
   xmlns:inkscape="http://www.inkscape.org/namespaces/inkscape"
   xmlns:sodipodi="http://sodipodi.sourceforge.net/DTD/sodipodi-0.dtd"
   xmlns="http://www.w3.org/2000/svg"
   xmlns:svg="http://www.w3.org/2000/svg">
  <sodipodi:namedview
     id="namedview1"
     pagecolor="#ffffff"
     bordercolor="#000000"
     borderopacity="0.25"
     inkscape:showpageshadow="2"
     inkscape:pageopacity="0.0"
     inkscape:pagecheckerboard="0"
     inkscape:deskcolor="#d1d1d1"
     inkscape:zoom="3.3203125"
     inkscape:cx="127.84941"
     inkscape:cy="128"
     inkscape:window-width="1920"
     inkscape:window-height="1052"
     inkscape:window-x="0"
     inkscape:window-y="0"
     inkscape:window-maximized="1"
     inkscape:current-layer="Layer_1" />
  <defs
     id="defs1">
    <style
       id="style1">.cls-1{fill:#ff4500;stroke-width:0px;}</style>
  </defs>
  <path
     class="cls-1"
     d="m 218.47784,90.639261 c -8.54153,0 -16.40971,2.880427 -22.69428,7.718547 -17.10799,-10.586505 -38.70496,-17.245156 -62.33444,-18.130482 0,-0.03741 0,-0.06235 0,-0.09976 0,-15.836115 11.7711,-28.978845 27.03362,-31.136048 2.7682,11.733689 13.30483,20.474726 25.88644,20.474726 14.68893,0 26.59719,-11.90826 26.59719,-26.597193 0,-14.688932 -11.90826,-26.597192 -26.59719,-26.597192 -12.84346,0 -23.55466,9.102649 -26.04854,21.210419 -21.50969,2.306836 -38.30594,20.549543 -38.30594,42.657758 0,0.04988 0,0.08729 0,0.137163 C 98.622135,81.262285 77.262083,87.920935 60.303723,98.432625 54.006684,93.557096 46.101096,90.65173 37.522161,90.65173 c -20.586951,0 -37.27098453,16.68403 -37.27098453,37.27098 0,14.93832 8.77844523,27.80673 21.45980753,33.75462 1.234469,43.26876 48.381204,78.07081 106.376306,78.07081 57.99509,0 105.20418,-34.83946 106.3763,-78.14562 12.5816,-5.98531 21.28523,-18.8163 21.28523,-33.66734 0,-20.58695 -16.68403,-37.270981 -37.27098,-37.270981 z"
     id="path1"
     style="fill:#ffffff;fill-opacity:1" />
</svg>
